# xmcd CD database file
#
# Track frame offsets:
#	150
#	18405
#	38392
#	51994
#	69061
#	87641
#	103801
#	119341
#	136767
#	152826
#	171596
#	184828
#
# Disc length: 2717 seconds
#
# Revision: 1
# Processed by: cddbd v1.5.2PL0 Copyright (c) Steve Scherf et al.
# Submitted via: CDex 1.51
#
DISCID=9e0a9b0c
DTITLE=Hilary McRae - Through These Walls
DYEAR=2008
DGENRE=Country
TTITLE0=Every Day (When Will You Be Mine)
TTITLE1=Consider Me Gone
TTITLE2=Why Can't Now
TTITLE3=Love Song For You
TTITLE4=Hostage
TTITLE5=Like You Never Loved Me
TTITLE6=Better Off Alone
TTITLE7=Let's Stop
TTITLE8=Only Light
TTITLE9=Waiting
TTITLE10=Somethin's Come Over Me
TTITLE11=Where Will We Be
EXTD=2008 YEAR: 2008
EXTT0=
EXTT1=
EXTT2=
EXTT3=
EXTT4=
EXTT5=
EXTT6=
EXTT7=
EXTT8=
EXTT9=
EXTT10=
EXTT11=
PLAYORDER=
